<?xml version="1.0" standalone="no"?>
<!DOCTYPE svg PUBLIC "-//W3C//DTD SVG 20010904//EN"
 "http://www.w3.org/TR/2001/REC-SVG-20010904/DTD/svg10.dtd">
<svg version="1.0" xmlns="http://www.w3.org/2000/svg"
 width="640.000000pt" height="640.000000pt" viewBox="0 0 640.000000 640.000000"
 preserveAspectRatio="xMidYMid meet">
<metadata>
Created by potrace 1.11, written by Peter Selinger 2001-2013
</metadata>
<g transform="translate(0.000000,640.000000) scale(0.100000,-0.100000)"
fill="#000000" stroke="none">
<path d="M5475 5242 c-11 -4 -51 -28 -90 -53 -38 -26 -105 -61 -148 -79 -69
-29 -137 -79 -137 -102 0 -5 -6 -8 -13 -8 -7 0 -23 -9 -35 -20 -12 -11 -23
-20 -26 -20 -3 0 -148 -96 -323 -212 -175 -117 -343 -223 -373 -236 -35 -14
-72 -41 -100 -71 -26 -28 -131 -105 -250 -184 -113 -74 -213 -142 -222 -151
-10 -9 -20 -16 -24 -16 -9 0 -128 -83 -136 -94 -4 -6 -8 -8 -8 -3 0 10 -80
-44 -80 -54 0 -5 -3 -8 -8 -7 -11 4 -112 -62 -112 -74 0 -5 -4 -7 -8 -4 -5 3
-18 -4 -30 -14 -12 -11 -25 -20 -30 -20 -5 0 -21 -11 -36 -25 -14 -13 -26 -22
-26 -19 0 2 -25 -12 -55 -32 -30 -20 -55 -41 -55 -46 0 -5 -4 -7 -8 -4 -5 3
-18 -2 -28 -12 -10 -9 -31 -23 -46 -31 -15 -8 -37 -22 -47 -33 -11 -10 -22
-18 -25 -18 -13 0 -326 -212 -326 -221 0 -5 -4 -8 -9 -6 -9 2 -1053 -686
-1078 -711 -7 -7 -13 -11 -13 -7 0 3 -24 -11 -52 -32 -29 -21 -72 -51 -95 -67
-24 -16 -41 -32 -38 -36 3 -4 -13 -28 -35 -52 -22 -25 -36 -48 -33 -52 3 -3 2
-6 -4 -6 -5 0 -41 -37 -79 -82 -38 -46 -73 -88 -79 -94 -79 -89 -199 -239
-198 -246 2 -4 -4 -8 -12 -8 -8 0 -15 -4 -15 -8 0 -4 -34 -47 -75 -95 -41 -48
-75 -91 -75 -97 0 -5 -4 -10 -8 -10 -4 0 -44 -41 -88 -92 -43 -51 -108 -123
-143 -160 -35 -37 -62 -68 -59 -68 2 0 -25 -31 -61 -68 -129 -134 -161 -170
-161 -178 1 -5 9 -19 19 -31 l19 -23 99 35 c54 20 107 40 118 45 56 25 189 62
605 167 250 63 496 126 545 139 50 14 99 26 110 28 11 2 38 8 60 14 22 6 56
14 75 17 19 3 49 8 65 11 36 8 195 102 195 115 0 6 4 8 10 4 5 -3 18 3 30 15
11 11 24 20 30 20 6 0 10 5 10 11 0 5 5 7 10 4 6 -3 13 1 16 9 3 9 12 16 20
16 8 0 23 9 34 20 11 11 20 18 20 16 0 -2 46 27 102 65 128 86 26 18 788 524
360 240 658 441 662 448 4 6 8 9 8 4 0 -4 123 75 272 175 150 101 277 185 283
187 5 2 12 7 15 10 13 16 367 245 385 249 22 5 86 49 97 68 4 6 38 31 75 55
38 24 73 48 78 52 6 5 128 86 272 182 144 95 260 175 257 177 -2 3 2 5 9 5 17
0 67 33 67 44 0 5 3 8 8 8 16 -3 72 14 72 22 0 5 5 9 11 9 12 0 24 12 58 55
12 17 24 28 24 26 3 -7 107 62 107 71 0 5 3 7 8 4 4 -2 22 8 40 22 43 36 82
141 89 244 16 223 -132 483 -357 626 -96 62 -237 96 -305 74z"/>
</g>
</svg>
